<svg xmlns="http://www.w3.org/2000/svg" version="1.1" xmlns:xlink="http://www.w3.org/1999/xlink" xmlns:svgjs="http://svgjs.dev/svgjs" viewBox="0 0 9.666374843238033 9.94424352432153"><g transform="matrix(1,0,0,1,0.8170106638065162,8.023232860515012)"><rect width="9.94424352432153" height="9.94424352432153" x="-0.9559450043482647" y="-8.023232860515012" fill="#192537"></rect><g><path d=" M 0.963 0.020999999999999908 Q 0.9570000000000001 0.09749999999999992 0.95475 0.16799999999999993 Q 0.9525 0.23849999999999993 0.9525 0.2759999999999999 Q 0.9525 0.30899999999999994 0.9540000000000001 0.33899999999999997 Q 0.9555 0.369 0.9570000000000001 0.3899999999999999 L 0.9225 0.3899999999999999 Q 0.8985 0.2639999999999999 0.86175 0.1904999999999999 Q 0.8250000000000001 0.11699999999999999 0.774 0.08624999999999994 Q 0.723 0.05549999999999988 0.654 0.05549999999999988 L 0.6195 0.05549999999999988 L 0.6195 0.9119999999999999 Q 0.6195 0.972 0.63225 1.002 Q 0.645 1.032 0.6795 1.04175 Q 0.714 1.0514999999999999 0.78 1.053 L 0.78 1.083 Q 0.7335 1.0815 0.65625 1.08 Q 0.579 1.0785 0.495 1.0785 Q 0.41250000000000003 1.0785 0.339 1.08 Q 0.2655 1.0815 0.2205 1.083 L 0.2205 1.053 Q 0.28800000000000003 1.0514999999999999 0.3225 1.04175 Q 0.357 1.032 0.369 1.002 Q 0.381 0.972 0.381 0.9119999999999999 L 0.381 0.05549999999999988 L 0.34800000000000003 0.05549999999999988 Q 0.279 0.05549999999999988 0.228 0.08624999999999994 Q 0.177 0.11699999999999999 0.14100000000000001 0.18974999999999997 Q 0.105 0.26249999999999996 0.078 0.3899999999999999 L 0.043500000000000004 0.3899999999999999 Q 0.0465 0.369 0.04725 0.33899999999999997 Q 0.048 0.30899999999999994 0.048 0.2759999999999999 Q 0.048 0.23849999999999993 0.04575 0.16799999999999993 Q 0.043500000000000004 0.09749999999999992 0.0375 0.020999999999999908 Q 0.1065 0.022499999999999964 0.18825 0.02400000000000002 Q 0.27 0.025499999999999856 0.3525 0.025499999999999856 Q 0.435 0.025499999999999856 0.501 0.025499999999999856 Q 0.5685 0.025499999999999856 0.65025 0.025499999999999856 Q 0.732 0.025499999999999856 0.8145 0.02400000000000002 Q 0.897 0.022499999999999964 0.963 0.020999999999999908 M 1.7040446777343752 1.083 L 1.7040446777343752 1.053 Q 1.752044677734375 1.05 1.776044677734375 1.041 Q 1.800044677734375 1.032 1.8082946777343751 1.005 Q 1.8165446777343752 0.978 1.8165446777343752 0.9239999999999999 L 1.8165446777343752 0.17999999999999994 Q 1.8165446777343752 0.12449999999999994 1.8082946777343751 0.09824999999999995 Q 1.800044677734375 0.07199999999999984 1.775294677734375 0.062249999999999917 Q 1.7505446777343752 0.05249999999999999 1.7040446777343752 0.050999999999999934 L 1.7040446777343752 0.020999999999999908 Q 1.7445446777343752 0.022499999999999964 1.8097946777343752 0.02400000000000002 Q 1.8750446777343752 0.025499999999999856 1.939544677734375 0.025499999999999856 Q 2.008544677734375 0.025499999999999856 2.0692946777343755 0.02400000000000002 Q 2.130044677734375 0.022499999999999964 2.167544677734375 0.020999999999999908 L 2.167544677734375 0.050999999999999934 Q 2.119544677734375 0.05249999999999999 2.094794677734375 0.062249999999999917 Q 2.070044677734375 0.07199999999999984 2.062544677734375 0.09824999999999995 Q 2.055044677734375 0.12449999999999994 2.055044677734375 0.17999999999999994 L 2.055044677734375 0.9239999999999999 Q 2.055044677734375 0.978 2.0632946777343752 1.005 Q 2.071544677734375 1.032 2.095544677734375 1.041 Q 2.119544677734375 1.05 2.167544677734375 1.053 L 2.167544677734375 1.083 Q 2.130044677734375 1.08 2.0692946777343755 1.07925 Q 2.008544677734375 1.0785 1.939544677734375 1.0785 Q 1.8750446777343752 1.0785 1.8097946777343752 1.07925 Q 1.7445446777343752 1.08 1.7040446777343752 1.083 M 1.068044677734375 1.083 L 1.068044677734375 1.053 Q 1.116044677734375 1.05 1.1400446777343751 1.041 Q 1.1640446777343751 1.032 1.1722946777343752 1.005 Q 1.180544677734375 0.978 1.180544677734375 0.9239999999999999 L 1.180544677734375 0.17999999999999994 Q 1.180544677734375 0.12449999999999994 1.1722946777343752 0.09824999999999995 Q 1.1640446777343751 0.07199999999999984 1.139294677734375 0.062249999999999917 Q 1.114544677734375 0.05249999999999999 1.068044677734375 0.050999999999999934 L 1.068044677734375 0.020999999999999908 Q 1.1070446777343752 0.022499999999999964 1.1692946777343751 0.02400000000000002 Q 1.231544677734375 0.025499999999999856 1.3050446777343752 0.025499999999999856 Q 1.368044677734375 0.025499999999999856 1.4295446777343752 0.02400000000000002 Q 1.491044677734375 0.022499999999999964 1.531544677734375 0.020999999999999908 L 1.531544677734375 0.050999999999999934 Q 1.483544677734375 0.05249999999999999 1.4587946777343752 0.062249999999999917 Q 1.4340446777343752 0.07199999999999984 1.426544677734375 0.09824999999999995 Q 1.4190446777343753 0.12449999999999994 1.4190446777343753 0.17999999999999994 L 1.4190446777343753 0.9239999999999999 Q 1.4190446777343753 0.978 1.4272946777343751 1.005 Q 1.435544677734375 1.032 1.459544677734375 1.041 Q 1.483544677734375 1.05 1.531544677734375 1.053 L 1.531544677734375 1.083 Q 1.491044677734375 1.08 1.4295446777343752 1.07925 Q 1.368044677734375 1.0785 1.3050446777343752 1.0785 Q 1.231544677734375 1.0785 1.1692946777343751 1.07925 Q 1.1070446777343752 1.08 1.068044677734375 1.083 M 1.3215446777343751 0.564 L 1.3215446777343751 0.5339999999999999 L 1.9140446777343751 0.5339999999999999 L 1.9140446777343751 0.564 L 1.3215446777343751 0.564 M 2.7465263671875 0.020999999999999908 L 2.7465263671875 0.050999999999999934 Q 2.6985263671875 0.05249999999999999 2.6737763671875 0.062249999999999917 Q 2.6490263671875 0.07199999999999984 2.6415263671875002 0.09824999999999995 Q 2.6340263671875004 0.12449999999999994 2.6340263671875004 0.17999999999999994 L 2.6340263671875004 0.9239999999999999 Q 2.6340263671875004 0.978 2.6422763671875003 1.005 Q 2.6505263671875 1.032 2.6745263671875 1.041 Q 2.6985263671875 1.05 2.7465263671875 1.053 L 2.7465263671875 1.083 Q 2.7060263671875004 1.08 2.6445263671875003 1.07925 Q 2.5830263671875002 1.0785 2.5200263671875005 1.0785 Q 2.4465263671875004 1.0785 2.3842763671875002 1.07925 Q 2.3220263671875 1.08 2.2830263671875004 1.083 L 2.2830263671875004 1.053 Q 2.3310263671875004 1.05 2.3550263671875005 1.041 Q 2.3790263671875 1.032 2.3872763671875004 1.005 Q 2.3955263671875002 0.978 2.3955263671875002 0.9239999999999999 L 2.3955263671875002 0.17999999999999994 Q 2.3955263671875002 0.12449999999999994 2.3872763671875004 0.09824999999999995 Q 2.3790263671875 0.07199999999999984 2.3542763671875004 0.062249999999999917 Q 2.3295263671875004 0.05249999999999999 2.2830263671875004 0.050999999999999934 L 2.2830263671875004 0.020999999999999908 Q 2.3220263671875 0.022499999999999964 2.3842763671875002 0.02400000000000002 Q 2.4465263671875004 0.025499999999999856 2.5200263671875005 0.025499999999999856 Q 2.5830263671875002 0.025499999999999856 2.6445263671875003 0.02400000000000002 Q 2.7060263671875004 0.022499999999999964 2.7465263671875 0.020999999999999908 M 3.8504912109375002 0.020999999999999908 L 3.8504912109375002 0.050999999999999934 Q 3.8024912109375 0.05699999999999994 3.7784912109375 0.07574999999999998 Q 3.7544912109375 0.09449999999999992 3.7462412109375003 0.1349999999999999 Q 3.7379912109375004 0.1755 3.7379912109375004 0.249 L 3.7379912109375004 1.0859999999999999 Q 3.7199912109375006 1.0845 3.7012412109375004 1.0845 Q 3.6824912109375005 1.0845 3.6614912109375 1.0859999999999999 L 3.0104912109375004 0.2609999999999999 L 3.0104912109375004 0.837 Q 3.0104912109375004 0.9195 3.0194912109375003 0.96375 Q 3.0284912109375 1.008 3.0592412109375005 1.02675 Q 3.0899912109375003 1.0454999999999999 3.1559912109375006 1.053 L 3.1559912109375006 1.083 Q 3.1274912109375004 1.08 3.0809912109375004 1.07925 Q 3.0344912109375004 1.0785 2.9939912109375 1.0785 Q 2.9594912109375002 1.0785 2.9234912109375 1.07925 Q 2.8874912109375 1.08 2.8634912109375006 1.083 L 2.8634912109375006 1.053 Q 2.9114912109375 1.0454999999999999 2.9354912109375 1.0274999999999999 Q 2.9594912109375002 1.0095 2.9677412109375005 0.9682499999999999 Q 2.9759912109375004 0.9269999999999999 2.9759912109375004 0.855 L 2.9759912109375004 0.17999999999999994 Q 2.9759912109375004 0.12449999999999994 2.9677412109375005 0.09824999999999995 Q 2.9594912109375002 0.07199999999999984 2.9347412109375 0.062249999999999917 Q 2.9099912109375006 0.05249999999999999 2.8634912109375006 0.050999999999999934 L 2.8634912109375006 0.020999999999999908 Q 2.8874912109375 0.022499999999999964 2.9234912109375 0.02400000000000002 Q 2.9594912109375002 0.025499999999999856 2.9939912109375 0.025499999999999856 Q 3.0299912109375002 0.025499999999999856 3.0629912109375006 0.02400000000000002 Q 3.0959912109375005 0.022499999999999964 3.1229912109375 0.020999999999999908 L 3.7034912109375004 0.7364999999999999 L 3.7034912109375004 0.2669999999999999 Q 3.7034912109375004 0.1845 3.6944912109375005 0.14024999999999999 Q 3.6854912109375 0.09599999999999997 3.6547412109375004 0.07650000000000001 Q 3.6239912109375005 0.05699999999999994 3.5579912109375003 0.050999999999999934 L 3.5579912109375003 0.020999999999999908 Q 3.5864912109375005 0.022499999999999964 3.6329912109375004 0.02400000000000002 Q 3.6794912109375004 0.025499999999999856 3.7199912109375006 0.025499999999999856 Q 3.7559912109375 0.025499999999999856 3.7912412109375007 0.02400000000000002 Q 3.8264912109375 0.022499999999999964 3.8504912109375002 0.020999999999999908 M 4.942468505859376 0.020999999999999908 L 4.942468505859376 0.04949999999999988 Q 4.8944685058593755 0.05999999999999983 4.839718505859375 0.09149999999999991 Q 4.784968505859376 0.123 4.724968505859375 0.1934999999999999 L 4.442968505859375 0.5295 L 4.529968505859376 0.4049999999999999 L 4.886968505859375 0.9615 Q 4.907968505859375 0.996 4.931968505859375 1.017 Q 4.955968505859375 1.038 4.994968505859376 1.053 L 4.994968505859376 1.083 Q 4.942468505859376 1.08 4.877968505859376 1.07925 Q 4.813468505859375 1.0785 4.760968505859376 1.0785 Q 4.7294685058593755 1.0785 4.684468505859376 1.07925 Q 4.639468505859376 1.08 4.570468505859376 1.083 L 4.570468505859376 1.053 Q 4.631968505859375 1.05 4.644718505859376 1.03575 Q 4.657468505859375 1.0215 4.633468505859375 0.9854999999999999 L 4.415968505859375 0.633 Q 4.394968505859375 0.5985 4.3784685058593755 0.5812499999999999 Q 4.361968505859376 0.564 4.345468505859375 0.5572499999999999 Q 4.328968505859375 0.5505 4.301968505859375 0.5489999999999999 L 4.301968505859375 0.5175 Q 4.367968505859375 0.5159999999999999 4.419718505859375 0.48149999999999993 Q 4.4714685058593755 0.44699999999999995 4.532968505859375 0.37649999999999995 L 4.621468505859376 0.2699999999999999 Q 4.678468505859375 0.2024999999999999 4.688218505859376 0.15374999999999994 Q 4.697968505859375 0.10499999999999998 4.668718505859376 0.07799999999999985 Q 4.639468505859376 0.050999999999999934 4.579468505859375 0.04949999999999988 L 4.579468505859375 0.020999999999999908 Q 4.6349685058593755 0.022499999999999964 4.685218505859376 0.02400000000000002 Q 4.735468505859376 0.025499999999999856 4.801468505859376 0.025499999999999856 Q 4.888468505859375 0.025499999999999856 4.942468505859376 0.020999999999999908 M 4.4234685058593755 0.020999999999999908 L 4.4234685058593755 0.050999999999999934 Q 4.375468505859375 0.05249999999999999 4.350718505859375 0.062249999999999917 Q 4.325968505859375 0.07199999999999984 4.318468505859376 0.09824999999999995 Q 4.310968505859376 0.12449999999999994 4.310968505859376 0.17999999999999994 L 4.310968505859376 0.9239999999999999 Q 4.310968505859376 0.978 4.319218505859375 1.005 Q 4.327468505859375 1.032 4.351468505859375 1.041 Q 4.375468505859375 1.05 4.4234685058593755 1.053 L 4.4234685058593755 1.083 Q 4.382968505859376 1.08 4.321468505859375 1.07925 Q 4.2599685058593755 1.0785 4.196968505859376 1.0785 Q 4.124968505859376 1.0785 4.061218505859376 1.07925 Q 3.9974685058593753 1.08 3.9599685058593757 1.083 L 3.9599685058593757 1.053 Q 4.007968505859376 1.05 4.031968505859376 1.041 Q 4.055968505859376 1.032 4.064218505859375 1.005 Q 4.0724685058593755 0.978 4.0724685058593755 0.9239999999999999 L 4.0724685058593755 0.17999999999999994 Q 4.0724685058593755 0.12449999999999994 4.064218505859375 0.09824999999999995 Q 4.055968505859376 0.07199999999999984 4.031218505859376 0.062249999999999917 Q 4.006468505859376 0.05249999999999999 3.9599685058593757 0.050999999999999934 L 3.9599685058593757 0.020999999999999908 Q 3.9974685058593753 0.022499999999999964 4.061218505859376 0.02400000000000002 Q 4.124968505859376 0.025499999999999856 4.196968505859376 0.025499999999999856 Q 4.2599685058593755 0.025499999999999856 4.321468505859375 0.02400000000000002 Q 4.382968505859376 0.022499999999999964 4.4234685058593755 0.020999999999999908 M 5.395394531250001 0.020999999999999908 Q 5.4328945312500005 0.022499999999999964 5.49664453125 0.02400000000000002 Q 5.560394531250001 0.025499999999999856 5.623394531250001 0.025499999999999856 Q 5.695394531250001 0.025499999999999856 5.762894531250001 0.02400000000000002 Q 5.8303945312500005 0.022499999999999964 5.858894531250001 0.022499999999999964 Q 6.044894531250001 0.022499999999999964 6.137144531250001 0.08849999999999991 Q 6.2293945312500005 0.15449999999999997 6.2293945312500005 0.2579999999999999 Q 6.2293945312500005 0.3105 6.197894531250001 0.36449999999999994 Q 6.166394531250001 0.4185 6.100394531250001 0.4604999999999999 Q 6.034394531250001 0.5025 5.929394531250001 0.5219999999999999 L 5.929394531250001 0.5249999999999999 Q 6.070394531250001 0.5355 6.15289453125 0.576 Q 6.235394531250001 0.6164999999999999 6.271394531250001 0.6735 Q 6.307394531250001 0.7304999999999999 6.307394531250001 0.792 Q 6.307394531250001 0.9329999999999999 6.197144531250001 1.008 Q 6.0868945312500005 1.083 5.893394531250001 1.083 Q 5.857394531250001 1.083 5.789144531250001 1.0807499999999999 Q 5.720894531250001 1.0785 5.626394531250001 1.0785 Q 5.560394531250001 1.0785 5.49664453125 1.07925 Q 5.4328945312500005 1.08 5.395394531250001 1.083 L 5.395394531250001 1.053 Q 5.443394531250001 1.05 5.467394531250001 1.041 Q 5.491394531250001 1.032 5.49964453125 1.005 Q 5.507894531250001 0.978 5.507894531250001 0.9239999999999999 L 5.507894531250001 0.17999999999999994 Q 5.507894531250001 0.12449999999999994 5.49964453125 0.09824999999999995 Q 5.491394531250001 0.07199999999999984 5.466644531250001 0.062249999999999917 Q 5.441894531250001 0.05249999999999999 5.395394531250001 0.050999999999999934 L 5.395394531250001 0.020999999999999908 M 5.839394531250001 0.050999999999999934 Q 5.78089453125 0.050999999999999934 5.763644531250001 0.07650000000000001 Q 5.746394531250001 0.10199999999999998 5.746394531250001 0.17999999999999994 L 5.746394531250001 0.9239999999999999 Q 5.746394531250001 1.002 5.765894531250001 1.02525 Q 5.785394531250001 1.0485 5.849894531250001 1.0485 Q 5.957894531250001 1.0485 6.008144531250001 0.98025 Q 6.05839453125 0.9119999999999999 6.05839453125 0.786 Q 6.05839453125 0.6704999999999999 6.000644531250001 0.6074999999999999 Q 5.942894531250001 0.5445 5.809394531250001 0.5445 L 5.681894531250001 0.5445 Q 5.681894531250001 0.5445 5.681894531250001 0.53175 Q 5.681894531250001 0.5189999999999999 5.681894531250001 0.5189999999999999 L 5.810894531250001 0.5189999999999999 Q 5.881394531250001 0.5189999999999999 5.91889453125 0.48524999999999996 Q 5.956394531250001 0.4514999999999999 5.9713945312500005 0.39525 Q 5.986394531250001 0.33899999999999997 5.986394531250001 0.27449999999999997 Q 5.986394531250001 0.16349999999999998 5.951894531250001 0.10724999999999996 Q 5.917394531250001 0.050999999999999934 5.839394531250001 0.050999999999999934 M 6.877404052734375 0.020999999999999908 L 6.877404052734375 0.050999999999999934 Q 6.829404052734375 0.05249999999999999 6.804654052734375 0.062249999999999917 Q 6.779904052734375 0.07199999999999984 6.772404052734376 0.09824999999999995 Q 6.764904052734376 0.12449999999999994 6.764904052734376 0.17999999999999994 L 6.764904052734376 0.9239999999999999 Q 6.764904052734376 0.978 6.773154052734375 1.005 Q 6.781404052734375 1.032 6.805404052734375 1.041 Q 6.829404052734375 1.05 6.877404052734375 1.053 L 6.877404052734375 1.083 Q 6.836904052734376 1.08 6.775404052734375 1.07925 Q 6.713904052734375 1.0785 6.650904052734376 1.0785 Q 6.577404052734376 1.0785 6.515154052734376 1.07925 Q 6.452904052734375 1.08 6.413904052734376 1.083 L 6.413904052734376 1.053 Q 6.461904052734376 1.05 6.485904052734376 1.041 Q 6.509904052734376 1.032 6.518154052734375 1.005 Q 6.526404052734375 0.978 6.526404052734375 0.9239999999999999 L 6.526404052734375 0.17999999999999994 Q 6.526404052734375 0.12449999999999994 6.518154052734375 0.09824999999999995 Q 6.509904052734376 0.07199999999999984 6.485154052734376 0.062249999999999917 Q 6.460404052734376 0.05249999999999999 6.413904052734376 0.050999999999999934 L 6.413904052734376 0.020999999999999908 Q 6.452904052734375 0.022499999999999964 6.515154052734376 0.02400000000000002 Q 6.577404052734376 0.025499999999999856 6.650904052734376 0.025499999999999856 Q 6.713904052734375 0.025499999999999856 6.775404052734375 0.02400000000000002 Q 6.836904052734376 0.022499999999999964 6.877404052734375 0.020999999999999908 M 7.53737548828125 0 Q 7.63937548828125 0 7.70387548828125 0.02849999999999997 Q 7.76837548828125 0.05699999999999994 7.81937548828125 0.09749999999999992 Q 7.83737548828125 0.11099999999999999 7.84937548828125 0.11099999999999999 Q 7.8778754882812505 0.11099999999999999 7.88687548828125 0.020999999999999908 L 7.92137548828125 0.020999999999999908 Q 7.91837548828125 0.0794999999999999 7.91687548828125 0.16274999999999995 Q 7.91537548828125 0.246 7.91537548828125 0.3839999999999999 L 7.88087548828125 0.3839999999999999 Q 7.87037548828125 0.29399999999999993 7.84862548828125 0.22724999999999995 Q 7.82687548828125 0.16049999999999998 7.76837548828125 0.11249999999999993 Q 7.73237548828125 0.07799999999999985 7.67912548828125 0.058499999999999996 Q 7.62587548828125 0.038999999999999924 7.5718754882812505 0.038999999999999924 Q 7.48937548828125 0.038999999999999924 7.43087548828125 0.08174999999999999 Q 7.37237548828125 0.12449999999999994 7.33487548828125 0.19799999999999995 Q 7.29737548828125 0.27149999999999996 7.27937548828125 0.3637499999999999 Q 7.26137548828125 0.45599999999999996 7.26137548828125 0.5549999999999999 Q 7.26137548828125 0.825 7.33562548828125 0.9495 Q 7.40987548828125 1.074 7.5493754882812505 1.074 Q 7.58537548828125 1.074 7.61237548828125 1.065 Q 7.63937548828125 1.056 7.65587548828125 1.044 Q 7.67687548828125 1.029 7.68437548828125 1.01175 Q 7.69187548828125 0.9944999999999999 7.69187548828125 0.966 L 7.69187548828125 0.819 Q 7.69187548828125 0.75 7.68062548828125 0.7162499999999999 Q 7.669375488281251 0.6824999999999999 7.63637548828125 0.6704999999999999 Q 7.60337548828125 0.6585 7.54037548828125 0.657 L 7.54037548828125 0.627 Q 7.5718754882812505 0.6285 7.61612548828125 0.62925 Q 7.66037548828125 0.6299999999999999 7.70837548828125 0.6307499999999999 Q 7.75637548828125 0.6315 7.79687548828125 0.6315 Q 7.85987548828125 0.6315 7.91237548828125 0.6299999999999999 Q 7.96487548828125 0.6285 7.997875488281251 0.627 L 7.997875488281251 0.657 Q 7.95587548828125 0.6599999999999999 7.94312548828125 0.6809999999999999 Q 7.93037548828125 0.702 7.93037548828125 0.786 L 7.93037548828125 1.083 L 7.9003754882812505 1.083 Q 7.89887548828125 1.0574999999999999 7.88912548828125 1.0274999999999999 Q 7.87937548828125 0.9974999999999999 7.856875488281251 0.9974999999999999 Q 7.84637548828125 0.9974999999999999 7.82912548828125 1.00275 Q 7.81187548828125 1.008 7.77587548828125 1.029 Q 7.72037548828125 1.0605 7.65887548828125 1.08225 Q 7.59737548828125 1.1039999999999999 7.52987548828125 1.1039999999999999 Q 7.2673754882812505 1.1039999999999999 7.13087548828125 0.9615 Q 6.99437548828125 0.819 6.99437548828125 0.564 Q 6.99437548828125 0.3929999999999999 7.06412548828125 0.2669999999999999 Q 7.13387548828125 0.1409999999999999 7.25612548828125 0.07050000000000001 Q 7.37837548828125 0 7.53737548828125 0" fill="#b09164" fill-rule="nonzero"></path></g><g></g><g clip-path="url(#SvgjsClipPath1001)"><path d=" M 0.538065659458252 -7.183188348375026 L 7.49428785616675 -7.183188348375026 L 7.49428785616675 -0.27303384833347266 L 0.538065659458252 -0.27303384833347266 Z" fill="#b09164" transform="matrix(1,0,0,1,0,0)" fill-rule="nonzero" mask="url(#maskedMgText-76acb879-3824-4c69-9bfd-cf619c2bbf37)"></path></g></g><defs><clipPath id="SvgjsClipPath1001"><path d=" M 0.538065659458252 -7.206222196708497 h 6.956222196708497 v 6.956222196708497 h -6.956222196708497 Z"></path></clipPath><mask id="maskedMgText-76acb879-3824-4c69-9bfd-cf619c2bbf37"><path d=" M 7.49428785616675 -3.728111098354249 C 7.49428785616675 -1.8072032060218928 5.937084650144857 -0.25 4.0161767578125005 -0.25 C 2.0952688654801443 -0.25 0.538065659458252 -1.8072032060218928 0.538065659458252 -3.728111098354249 C 0.538065659458252 -5.6490189906866055 2.0952688654801443 -7.206222196708497 4.0161767578125005 -7.206222196708497 C 5.937084650144857 -7.206222196708497 7.49428785616675 -5.6490189906866055 7.49428785616675 -3.728111098354249 Z" fill="#ffffff" transform="matrix(1,0,0,1,0,0)" fill-rule="nonzero"></path><path d=" M 2.759261494945508 -2.8772752989834283 L 2.759261494945508 -2.9185279438014073 L 3.019668815359002 -3.0216595558463553 L 3.019668815359002 -4.437140931163267 L 2.6122989477814573 -4.437140931163267 L 2.4292403364016746 -4.047819095693588 L 2.3879876915836955 -4.047819095693588 L 2.3879876915836955 -4.57894689772507 L 3.9194921304511725 -4.57894689772507 L 3.9194921304511725 -4.047819095693588 L 3.878239485633194 -4.047819095693588 L 3.697759164554535 -4.437140931163267 L 3.2878110066758666 -4.437140931163267 L 3.2878110066758666 -3.0216595558463553 L 3.5507966173904837 -2.9185279438014073 L 3.5507966173904837 -2.8772752989834283 L 2.759261494945508 -2.8772752989834283" fill="NA" transform="matrix(1,0,0,1,0,0)" fill-rule="nonzero"></path><path d=" M 4.185037147504747 -2.8772752989834283 L 4.185037147504747 -2.9185279438014073 L 4.393878661895767 -3.0216595558463553 L 4.393878661895767 -4.434562640862143 L 4.185037147504747 -4.537694252907091 L 4.185037147504747 -4.57894689772507 L 4.878597238507022 -4.57894689772507 C 4.993760871957214 -4.57894689772507 5.09732219905235 -4.5647663010688895 5.189281219792428 -4.536405107756529 C 5.281240240532506 -4.508043914444168 5.35343236896397 -4.4659318395258145 5.405857605086819 -4.410068883001467 C 5.458282841209668 -4.354205926477121 5.484495459271091 -4.283302943196219 5.484495459271091 -4.197359933158762 C 5.484495459271091 -4.109698062920557 5.454415405757982 -4.029341348535534 5.394255298731762 -3.956289790003696 C 5.334095191705543 -3.883238231471858 5.247292751567711 -3.831242710399197 5.1338479783182684 -3.8003032267857124 C 5.29026425658644 -3.779676904376723 5.412733045889816 -3.7319785338059344 5.501254346228396 -3.657208115073347 C 5.589775646566976 -3.58243769634076 5.634036296736266 -3.4874706702493703 5.634036296736266 -3.3723070367991785 C 5.634036296736266 -3.277769725757976 5.603956243223156 -3.1931158608710817 5.543796136196937 -3.118345442138494 C 5.483636029170717 -3.0435750234059067 5.401130739534759 -2.984704061530249 5.296280267289061 -2.941732556511521 C 5.191429795043365 -2.8987610514927926 5.0719690110913 -2.8772752989834283 4.937897915432868 -2.8772752989834283 L 4.185037147504747 -2.8772752989834283 M 4.803826819774435 -4.437140931163267 L 4.6645991435137555 -4.437140931163267 L 4.6645991435137555 -3.823507839495826 L 4.816718271280053 -3.823507839495826 C 4.938757345533242 -3.823507839495826 5.033294656574444 -3.8501501726074374 5.100330204403661 -3.903434838830661 C 5.167365752232877 -3.9567195050538837 5.200883526147485 -4.029771063585722 5.200883526147485 -4.122589514426175 C 5.200883526147485 -4.332290458917569 5.068531290689801 -4.437140931163267 4.803826819774435 -4.437140931163267 M 4.8992235609160115 -3.68685845353627 L 4.6645991435137555 -3.68685845353627 L 4.6645991435137555 -3.019081265545232 L 4.917271593023878 -3.019081265545232 C 5.049623828481561 -3.019081265545232 5.154044585677071 -3.0504504642089034 5.230533864610408 -3.113188861536247 C 5.307023143543744 -3.1759272588635903 5.345267783010412 -3.256283973248612 5.345267783010412 -3.3542590046913126 C 5.345267783010412 -3.4694226381415048 5.3065934284935565 -3.553646787978212 5.229244719459846 -3.606931454201435 C 5.151896010426134 -3.6602161204246584 5.04188895757819 -3.68685845353627 4.8992235609160115 -3.68685845353627" fill="NA" transform="matrix(1,0,0,1,0,0)" fill-rule="nonzero"></path></mask></defs></svg>